<svg id="Layer_1" data-name="Layer 1" xmlns="http://www.w3.org/2000/svg" viewBox="0 0 437 437"><defs><style>.cls-1,.cls-2{fill:#fff;}.cls-1{opacity:0.5;}</style></defs><circle class="cls-1" cx="218.5" cy="218.5" r="218.5"/><path class="cls-2" d="M284.63,282a6.78,6.78,0,0,1-6.79,6.78H237.16a6.8,6.8,0,0,1-6.78-6.78V261.62H149v61c0,10.85,9.5,20.34,20.34,20.34H345.66c10.84,0,20.34-9.5,20.34-20.34v-61H284.63Zm61-101.72H311.75V159.91c0-10.85-9.49-20.35-20.34-20.35H223.59c-10.85,0-20.34,9.5-20.34,20.35v20.34H169.34c-10.84,0-20.34,9.49-20.34,20.34v47.47H366V200.59C366,189.74,356.51,180.25,345.66,180.25Zm-54.25,0H223.59V159.91h67.82Z" transform="translate(-37.5 -26)"/></svg>