<svg id="Layer_1" data-name="Layer 1" xmlns="http://www.w3.org/2000/svg" viewBox="0 0 437 437"><defs><style>.cls-1,.cls-2{fill:#fff;}.cls-1{opacity:0.5;}</style></defs><circle class="cls-1" cx="218.5" cy="218.5" r="218.5"/><path class="cls-2" d="M258.67,307.5a35.36,35.36,0,0,1-21.86-7.61L140,224.62V329.75A22.25,22.25,0,0,0,162.25,352H355.08a22.25,22.25,0,0,0,22.25-22.25V224.62l-96.78,75.32A35.67,35.67,0,0,1,258.67,307.5ZM147.55,211.69l98.36,76.53a20.79,20.79,0,0,0,25.53,0l98.36-76.53c4.33-3.71,7.53-9.41,7.53-15.44A22.25,22.25,0,0,0,355.08,174H162.25A22.25,22.25,0,0,0,140,196.25,19.59,19.59,0,0,0,147.55,211.69Z" transform="translate(-38 -38)"/></svg>