<svg id="Capa_1" data-name="Capa 1" xmlns="http://www.w3.org/2000/svg" viewBox="0 0 437 437"><defs><style>.cls-1,.cls-2{fill:#fff;}.cls-1{opacity:0.5;}</style></defs><circle class="cls-1" cx="218.5" cy="218.5" r="218.5"/><path class="cls-2" d="M393.46,229.86l-45-45v-52a17,17,0,0,0-34.07,0v18l-33.53-33.53c-16.58-16.57-45.4-16.55-61.95,0l-112.6,112.6A17,17,0,0,0,130.37,254L243,141.34a10,10,0,0,1,13.78,0L369.37,254a17,17,0,0,0,24.09-24.09Z" transform="translate(-29.2 -26)"/><path class="cls-2" d="M255.79,173.67a8.36,8.36,0,0,0-11.83,0l-99.05,99a8.35,8.35,0,0,0-2.45,5.92v72.22a30.69,30.69,0,0,0,30.68,30.69h49V305.58h55.37v75.94h49a30.69,30.69,0,0,0,30.69-30.68V278.61a8.35,8.35,0,0,0-2.45-5.92Z" transform="translate(-29.2 -26)"/></svg>