<svg id="Layer_1" data-name="Layer 1" xmlns="http://www.w3.org/2000/svg" viewBox="0 0 437 437"><defs><style>.cls-1,.cls-2{fill:#fff;}.cls-1{opacity:0.5;}</style></defs><circle class="cls-1" cx="218.5" cy="218.5" r="218.5"/><path class="cls-2" d="M353.31,215.82c8,3.77,13.69,13.9,13.69,25.84s-5.73,22.07-13.69,25.83v63.13A13.66,13.66,0,0,1,330,340.29l-18.69-19a109.16,109.16,0,0,0-77.42-31.7h-3.73v54.75A13.67,13.67,0,0,1,216.44,358H189.06a13.68,13.68,0,0,1-13.68-13.69V289.56A27.38,27.38,0,0,1,148,262.19V221.12a27.39,27.39,0,0,1,27.38-27.37h58.47a109.55,109.55,0,0,0,77.42-32.07L330,143a13.68,13.68,0,0,1,23.35,9.68Zm-119.46,5.3h-3.73v41.07h3.73a136.79,136.79,0,0,1,92.09,35.63V185.49a136.79,136.79,0,0,1-92.09,35.63Z" transform="translate(-37.5 -37)"/></svg>