<svg id="Capa_1" data-name="Capa 1" xmlns="http://www.w3.org/2000/svg" viewBox="0 0 437 437"><defs><style>.cls-1,.cls-2{fill:#fff;}.cls-1{opacity:0.5;}</style></defs><circle class="cls-1" cx="218.5" cy="218.5" r="218.5"/><path class="cls-2" d="M381.68,286.69H370.24V237.41c0-5.59-6.43-10.12-14.37-10.12H261.55V181.68H273c4.63,0,8.38-2.64,8.38-5.9V139.4c0-3.26-3.75-5.9-8.38-5.9H221.38c-4.63,0-8.38,2.64-8.38,5.9v36.38c0,3.26,3.75,5.9,8.38,5.9h11.44v45.61H138.5c-7.94,0-14.37,4.53-14.37,10.12v49.28H112.69c-4.63,0-8.38,2.64-8.38,5.9V329c0,3.26,3.75,5.9,8.38,5.9H164.3c4.63,0,8.38-2.64,8.38-5.9V292.59c0-3.26-3.75-5.9-8.38-5.9H152.86V247.53h80v39.16H221.38c-4.63,0-8.38,2.64-8.38,5.9V329c0,3.26,3.75,5.9,8.38,5.9H273c4.63,0,8.38-2.64,8.38-5.9V292.59c0-3.26-3.75-5.9-8.38-5.9H261.55V247.53h80v39.16H330.06c-4.62,0-8.37,2.64-8.37,5.9V329c0,3.26,3.75,5.9,8.37,5.9h51.62c4.63,0,8.38-2.64,8.38-5.9V292.59C390.06,289.33,386.31,286.69,381.68,286.69Z" transform="translate(-28.68 -29)"/></svg>