<svg id="g_" data-name="g+" xmlns="http://www.w3.org/2000/svg" viewBox="0 0 30 30"><defs><style>.cls-1{fill:#fff;}</style></defs><polygon id="_" data-name="+" class="cls-1" points="30 13 26 13 26 9 24 9 24 13 20 13 20 15 24 15 24 19 26 19 26 15 30 15 30 13"/><path id="g" class="cls-1" d="M15,17s-2-1.15-2-2a3,3,0,0,1,1-3c1.54-1.2,3-3,3-5C17,4.66,16,2,14,1h3l2.39-1H10C5.84,0,2,3.35,2,7s2.85,6.56,7.09,6.56c.29,0,.58,0,.86,0a3.74,3.74,0,0,0-.47,1.74A4.26,4.26,0,0,0,11,18H9c-5.16,0-9,2.59-9,6s4.87,6,10,6c5.88,0,10-3,10-7C20,20.31,17.45,18.74,15,17Zm-4-4c-2.4,0-5.59-2.86-6-6S6.61.93,9,1s4.6,2.91,5,6.05S13,13,11,13ZM10,28c-3.57,0-7-1.29-7-4s3.43-5,7-5c.83,0,2,0,2,0a7.14,7.14,0,0,1,4,2,4.45,4.45,0,0,1,1,3C17,27,15,28,10,28Z" transform="translate(0)"/></svg>