<svg id="Layer_1" data-name="Layer 1" xmlns="http://www.w3.org/2000/svg" viewBox="0 0 352 511.99"><defs><style>.cls-1{fill:#feb902;}</style></defs><path class="cls-1" d="M176,80a96.1,96.1,0,0,1,96,96,16,16,0,0,1-32,0,64.07,64.07,0,0,0-64-64,16,16,0,0,1,0-32Zm79.94,379.17a15.9,15.9,0,0,1-2.68,8.84l-24.51,36.84A16,16,0,0,1,215.43,512H136.58a16,16,0,0,1-13.32-7.14L98.75,468a16.08,16.08,0,0,1-2.68-8.84L96,416H256ZM176,0C278.28,0,352,83,352,176a175,175,0,0,1-43.56,115.78c-16.64,19-42.74,58.8-52.42,92.16V384H208v-.12a47.31,47.31,0,0,1,2.15-14.07C215.76,352,233,305,272.34,260.14A127.6,127.6,0,0,0,304,176c.2-73.64-59.67-128-127.95-128A127.91,127.91,0,0,0,79.65,260.14c39.11,44.61,56.42,91.47,62.1,109.46A47.56,47.56,0,0,1,144,383.9v.1H96V384c-9.68-33.37-35.78-73.18-52.42-92.16A175.92,175.92,0,0,1,176,0Z"/></svg>