<svg id="Layer_1" data-name="Layer 1" xmlns="http://www.w3.org/2000/svg" viewBox="0 0 512 384"><defs><style>.cls-1{fill:#25c389;}</style></defs><path class="cls-1" d="M464,64H48A48,48,0,0,0,0,112V400a48,48,0,0,0,48,48H464a48,48,0,0,0,48-48V112A48,48,0,0,0,464,64Zm-6,336H54a6,6,0,0,1-6-6V118a6,6,0,0,1,6-6H458a6,6,0,0,1,6,6V394A6,6,0,0,1,458,400ZM128,152a40,40,0,1,0,40,40A40,40,0,0,0,128,152ZM96,352H416V272l-87.52-87.51a12,12,0,0,0-17,0L192,304l-39.51-39.52a12,12,0,0,0-17,0L96,304Z" transform="translate(0 -64)"/></svg>