<svg id="Layer_1" data-name="Layer 1" xmlns="http://www.w3.org/2000/svg" viewBox="0 0 447.98 512"><defs><style>.cls-1{fill:#fff;}</style></defs><path class="cls-1" d="M437.2,403.5,319.1,215V64h7.1c13.25,0,23.1-10.75,23.1-24V24c0-13.25-10.75-24-23.1-24H120A24,24,0,0,0,96,24V40c0,13.25,10.75,24,23.1,24h7.1L128,215,10.8,403.5C-18.48,450.6,15.27,512,70.89,512h306.2C432.7,512,466.5,450.5,437.2,403.5ZM137.1,320l48.15-77.63A27.05,27.05,0,0,0,191.9,224L192,64h64l-.06,160a31.91,31.91,0,0,0,5.87,18.38L309.9,320Z" transform="translate(-0.01)"/></svg>