<svg id="Layer_1" data-name="Layer 1" xmlns="http://www.w3.org/2000/svg" viewBox="0 0 512 448.05"><defs><style>.cls-1{fill:#fff;}</style></defs><path class="cls-1" d="M512,165.4C512,293.3,442,400.7,336.7,435.5A175.2,175.2,0,0,1,272,448c-64.9,0-125.2-36.51-155.7-94.47-54.13,49.93-68.71,107-69,108.1A24,24,0,0,1,24,480a24.53,24.53,0,0,1-5.6-.66,24,24,0,0,1-17.75-29C10.27,410.88,91.14,224,336,224a16,16,0,1,0,0-32c-107.4,0-185,34.6-239.71,75.6a179.43,179.43,0,0,1,3.54-33.05c13.47-65.81,66-119,131.4-134.2a176,176,0,0,1,80.92,0c56,13.32,118.2-7.41,149.31-61.24,5.66-9.82,20-9.51,24.66.83C502.7,76.76,512,121.9,512,165.4Z" transform="translate(0 -31.95)"/></svg>