<svg id="Layer_1" data-name="Layer 1" xmlns="http://www.w3.org/2000/svg" viewBox="0 0 640 512"><defs><style>.cls-1{fill:#fff;}</style></defs><path class="cls-1" d="M319.9,320C377.31,320,423,273.44,423,216S376.46,112,319.9,112c-57.41,0-103.1,46.56-103.1,104C215.9,273.4,262.5,320,319.9,320Zm50,32H270.1C191.6,352,128,411.7,128,485.3c0,14.8,12.7,26.7,28.4,26.7H483.6c15.7,0,28.4-11.9,28.4-26.7C512,411.7,448.4,352,369.9,352ZM512,160a80,80,0,1,0-80-80A80,80,0,0,0,512,160ZM183.9,216c0-5.45,1-10.63,1.61-15.91-10.91-6-22.91-8.09-35.61-8.09H88.08C39.44,192,0,233.8,0,285.3,0,295.6,7.89,304,17.62,304h199.5C196.7,280.2,183.9,249.7,183.9,216ZM128,160A80,80,0,1,0,48,80,80,80,0,0,0,128,160Zm423.9,32H490.06a83.43,83.43,0,0,0-35.86,8.24c.6,5.26,1.6,10.36,1.6,15.76,0,33.71-12.78,64.21-33.16,88h199.7c9.76,0,17.66-8.4,17.66-18.7C640,233.8,600.6,192,551.9,192Z"/></svg>