<svg xmlns="http://www.w3.org/2000/svg" viewBox="0 0 448 512"><defs><style>.cls-1{fill:#3295c0;}.cls-2{fill:#fff;}</style></defs><g id="Layer_2" data-name="Layer 2"><rect class="cls-1" width="448" height="512"/></g><g id="Layer_1" data-name="Layer 1"><path class="cls-2" d="M59.61,165.16H388.39A12.64,12.64,0,0,0,401,152.52V120.91a12.64,12.64,0,0,0-12.64-12.65H59.61A12.64,12.64,0,0,0,47,120.91v31.61A12.64,12.64,0,0,0,59.61,165.16Zm0,126.46H388.39A12.65,12.65,0,0,0,401,279V247.36a12.64,12.64,0,0,0-12.64-12.65H59.61A12.64,12.64,0,0,0,47,247.36V279A12.65,12.65,0,0,0,59.61,291.62Zm0,126.45H388.39A12.65,12.65,0,0,0,401,405.42V373.81a12.64,12.64,0,0,0-12.64-12.65H59.61A12.64,12.64,0,0,0,47,373.81v31.61A12.65,12.65,0,0,0,59.61,418.07Z" transform="translate(0 0)"/></g></svg>