<svg id="Layer_1" data-name="Layer 1" xmlns="http://www.w3.org/2000/svg" viewBox="0 0 639.95 510.28"><defs><style>.cls-1{fill:#e7615e;}</style></defs><path class="cls-1" d="M512.1,191l-8.2,14.3a12.36,12.36,0,0,1-15.1,5.4,110.5,110.5,0,0,1-32.1-18.6,12.42,12.42,0,0,1-2.8-15.7l8.2-14.3a86.33,86.33,0,0,1-15.9-27.4H429.7a12.34,12.34,0,0,1-12.2-10.3,112.66,112.66,0,0,1,0-37.1,12.43,12.43,0,0,1,12.2-10.4h16.5a86.33,86.33,0,0,1,15.9-27.4l-8.2-14.3a12.3,12.3,0,0,1,2.8-15.7A111.83,111.83,0,0,1,488.8.9a12.36,12.36,0,0,1,15.1,5.4l8.2,14.3a88.86,88.86,0,0,1,31.7,0L552,6.3A12.36,12.36,0,0,1,567.1.9a110.5,110.5,0,0,1,32.1,18.6A12.42,12.42,0,0,1,602,35.2l-8.2,14.3a86.33,86.33,0,0,1,15.9,27.4h16.5a12.34,12.34,0,0,1,12.2,10.3,112.66,112.66,0,0,1,0,37.1,12.43,12.43,0,0,1-12.2,10.4H609.7a86.33,86.33,0,0,1-15.9,27.4l8.2,14.3a12.3,12.3,0,0,1-2.8,15.7,111.83,111.83,0,0,1-32.1,18.6,12.36,12.36,0,0,1-15.1-5.4L543.8,191A88.86,88.86,0,0,1,512.1,191Zm-10.5-58.8c38.5,29.6,82.4-14.3,52.8-52.8C515.9,49.7,472,93.7,501.6,132.2ZM386.3,286.1,420,302.9A24,24,0,0,1,430.5,332c-8.9,24.2-26.4,46.4-42.6,65.8a23.91,23.91,0,0,1-30.3,5.3l-29.1-16.8A171.78,171.78,0,0,1,273.6,418v33.6a23.93,23.93,0,0,1-19.7,23.6,224.88,224.88,0,0,1-75.9,0,24,24,0,0,1-20-23.6V418a173.66,173.66,0,0,1-54.9-31.7L74,403a23.93,23.93,0,0,1-30.3-5.3C27.5,378.3,10.4,356.1,1.5,332A24.13,24.13,0,0,1,12,302.9l33.3-16.8a173.24,173.24,0,0,1,0-63.4L12,205.8a23.84,23.84,0,0,1-10.5-29c8.9-24.2,26-46.4,42.2-65.8A23.91,23.91,0,0,1,74,105.7l29.1,16.8A171.78,171.78,0,0,1,158,90.8V57.1a23.82,23.82,0,0,1,19.6-23.5,228.06,228.06,0,0,1,76-.1,24,24,0,0,1,20,23.6V90.7a173.66,173.66,0,0,1,54.9,31.7l29.1-16.8a23.93,23.93,0,0,1,30.3,5.3c16.2,19.4,33.2,41.6,42.1,65.8,4,10.9.1,23.2-10,29.1l-33.7,16.8A173.78,173.78,0,0,1,386.3,286.1ZM268.7,307.2c59.2-77-28.7-164.9-105.7-105.7C103.8,278.5,191.7,366.4,268.7,307.2ZM512.1,489.9l-8.2,14.3a12.36,12.36,0,0,1-15.1,5.4A110.5,110.5,0,0,1,456.7,491a12.42,12.42,0,0,1-2.8-15.7l8.2-14.3a86.33,86.33,0,0,1-15.9-27.4H429.7a12.34,12.34,0,0,1-12.2-10.3,112.66,112.66,0,0,1,0-37.1,12.43,12.43,0,0,1,12.2-10.4h16.5a86.33,86.33,0,0,1,15.9-27.4l-8.2-14.3a12.3,12.3,0,0,1,2.8-15.7,111.83,111.83,0,0,1,32.1-18.6,12.36,12.36,0,0,1,15.1,5.4l8.2,14.3a88.86,88.86,0,0,1,31.7,0l8.2-14.3a12.36,12.36,0,0,1,15.1-5.4,110.5,110.5,0,0,1,32.1,18.6,12.42,12.42,0,0,1,2.8,15.7l-8.2,14.3a86.33,86.33,0,0,1,15.9,27.4h16.5a12.34,12.34,0,0,1,12.2,10.3,112.66,112.66,0,0,1,0,37.1,12.43,12.43,0,0,1-12.2,10.4H609.7A86.33,86.33,0,0,1,593.8,461l8.2,14.3a12.3,12.3,0,0,1-2.8,15.7,111.83,111.83,0,0,1-32.1,18.6,12.36,12.36,0,0,1-15.1-5.4l-8.2-14.3A88.86,88.86,0,0,1,512.1,489.9ZM501.6,431c38.5,29.6,82.4-14.3,52.8-52.8-38.5-29.6-82.4,14.3-52.8,52.8Z" transform="translate(0.01 -0.11)"/></svg>