<svg id="Layer_1" data-name="Layer 1" xmlns="http://www.w3.org/2000/svg" viewBox="0 0 499.98 499.53"><defs><style>.cls-1{fill:#fff;}</style></defs><path class="cls-1" d="M505.7,380.8C483.6,185.6,329.6,30.5,135,6.6A43.59,43.59,0,0,0,86.1,49.9v.3c0,22.2,16.7,40.5,38.7,43.3,154,19.3,276.1,142.3,294,296.7,2.6,22.2,21,39.2,43.3,39.2h.2A43.74,43.74,0,0,0,505.7,380.8Z" transform="translate(-6 -6.27)"/><path class="cls-1" d="M139.7,184.7a43.6,43.6,0,0,0-53.6,42.4v.2c0,20.1,13.6,37.8,33.2,42.3A164.38,164.38,0,0,1,242.8,395.1a43.28,43.28,0,0,0,42.5,34.1h.3c27.8,0,48.4-25.7,42.6-53C307.7,281.7,233.7,206.7,139.7,184.7Z" transform="translate(-6 -6.27)"/><path class="cls-1" d="M82.5,352.9A76.45,76.45,0,1,0,159,429.3,76.54,76.54,0,0,0,82.5,352.9Z" transform="translate(-6 -6.27)"/></svg>